<svg width="264" height="294" viewBox="0 0 264 294" fill="none" xmlns="http://www.w3.org/2000/svg">
<path d="M57.595 75.0534C57.595 75.0534 17.0067 96.4999 16.9084 100.472C16.7423 106.692 48.6734 156.881 59.0337 165.233C62.5517 168.041 75.8628 170.516 77.6149 170.347C79.367 170.178 130.232 147.28 130.429 143.043C130.626 138.807 90.2984 72.4646 88.0674 71.5464C85.8364 70.6283 57.595 75.0534 57.595 75.0534Z" fill="#656C73" stroke="#656C73" stroke-linecap="round" stroke-linejoin="round"/>
<path d="M17.4134 102.626L30.95 105.081L88.7201 72.1676L57.9991 75.7906C57.9991 75.7906 14.1589 99.1654 17.4134 102.626Z" fill="white" stroke="#656C73" stroke-linecap="round" stroke-linejoin="round"/>
<path d="M37.1598 98.8895L26.0839 95.4214L45.6881 83.9408L51.5671 90.4524L37.1598 98.8895Z" fill="#656C73" stroke="#656C73"/>
<path d="M30.5088 104.228L76.871 170.441L57.1246 166.089C57.1246 166.089 22.0191 118.7 17.1677 101.931L30.5088 104.228Z" fill="white" stroke="#656C73" stroke-linecap="round" stroke-linejoin="round"/>
<path d="M117.037 76.6557C117.037 76.6557 118.206 78.0466 130.961 77.5364C139.203 77.1453 147.393 76.1456 155.461 74.5459C155.461 74.5459 151.154 81.2023 154.479 88.1432C156.114 91.6845 157.959 95.1325 160.005 98.4695C160.005 98.4695 154.251 101.323 143.749 101.903C133.247 102.483 130.006 101.788 130.006 101.788C130.006 101.788 118.176 87.3482 117.037 76.6557Z" fill="white" stroke="#656C73" stroke-linecap="round" stroke-linejoin="round"/>
<path d="M158.61 99.3965C165.591 97.9243 169.904 91.0709 168.243 84.0889C166.582 77.107 159.576 72.6405 152.594 74.1127C145.613 75.5849 141.3 82.4383 142.961 89.4203C144.623 96.4022 151.629 100.869 158.61 99.3965Z" fill="#656C73" stroke="#656C73" stroke-linecap="round" stroke-linejoin="round"/>
<path d="M163.21 99.427C170.183 97.9573 174.348 90.5134 172.511 82.8005C170.675 75.0876 163.533 70.0264 156.56 71.4961C149.586 72.9658 145.422 80.4098 147.258 88.1227C149.095 95.8356 156.236 100.897 163.21 99.427Z" fill="white" stroke="#656C73" stroke-linecap="round" stroke-linejoin="round"/>
<path d="M177.405 65.987C177.405 65.987 163.376 65.9445 156.64 71.1954C149.903 76.4463 152.232 87.4506 157.037 93.5575C161.842 99.6643 168.742 96.8394 171.579 94.5851C174.417 92.3307 185.4 84.5565 188.822 81.0996C192.243 77.6428 188.346 67.2289 185.317 65.1352C182.288 63.0415 177.405 65.987 177.405 65.987Z" fill="white" stroke="#656C73" stroke-linecap="round" stroke-linejoin="round"/>
<path d="M185.188 85.2931C192.028 83.8501 196.343 77.5076 194.825 71.1266C193.308 64.7456 186.534 60.7426 179.694 62.1856C172.854 63.6286 168.539 69.9711 170.057 76.3521C171.574 82.7331 178.348 86.7361 185.188 85.2931Z" fill="#656C73" stroke="#656C73" stroke-linecap="round" stroke-linejoin="round"/>
<path d="M178.061 59.2585C178.061 59.2585 175.176 68.3148 176.288 72.9913C177.4 77.6678 180.303 82.7684 185.009 82.606C189.716 82.4436 192.906 74.6689 192.906 74.6689C194.724 74.0185 196.385 73.0209 197.791 71.7342C200.094 69.6163 201.046 64.2322 201.046 64.2322C201.046 64.2322 203.643 63.4125 206.581 62.7927C209.519 62.173 212.77 61.7593 212.277 59.6869C211.784 57.6145 204.285 57.8361 204.285 57.8361C204.285 57.8361 210.085 56.3405 211.311 54.4498C212.536 52.5591 212.182 49.899 209.79 50.4036C207.398 50.9082 197.857 54.2809 197.857 54.2809C197.857 54.2809 204.858 48.5086 203.078 43.3717C201.298 38.2347 195.555 45.7748 195.555 45.7748C195.555 45.7748 196.449 40.1453 191.693 42.5088C186.937 44.8723 181.31 49.3236 178.061 59.2585Z" fill="white" stroke="#656C73" stroke-linecap="round" stroke-linejoin="round"/>
<path d="M189.156 79.4155C196.386 74.641 192.382 69.5235 192.382 69.5235C192.382 69.5235 201.216 59.7909 195.097 57.5432C188.979 55.2956 181.53 68.2587 181.53 68.2587" fill="white"/>
<path d="M189.156 79.4155C196.386 74.641 192.382 69.5235 192.382 69.5235C192.382 69.5235 201.216 59.7909 195.097 57.5432C188.979 55.2956 181.53 68.2587 181.53 68.2587" stroke="#656C73" stroke-linecap="round" stroke-linejoin="round"/>
<path d="M195.66 45.983C194.764 47.5709 193.715 49.071 192.526 50.4637C190.362 53.0946 187.339 55.6348 187.955 58.2231" fill="white"/>
<path d="M195.66 45.983C194.764 47.5709 193.715 49.071 192.526 50.4637C190.362 53.0946 187.339 55.6348 187.955 58.2231" stroke="#656C73" stroke-linecap="round" stroke-linejoin="round"/>
<path d="M163.194 235.754C163.194 235.754 160.272 242.022 163.154 246.476C166.035 250.931 171.643 253.921 175.45 257.134C179.257 260.346 182.816 266.91 192.739 266.895C202.661 266.881 208.281 260.33 208.201 256.776C208.121 253.221 204.482 248.18 204.349 247.621C204.216 247.061 192.515 232.534 192.515 232.534L163.194 235.754Z" fill="white" stroke="#656C73" stroke-linecap="round" stroke-linejoin="round"/>
<path d="M192.571 229.103L203.022 245.501C208.244 253.687 207.094 258.852 198.133 262.487C189.173 266.123 183.558 260.052 176.663 254.838C169.768 249.624 163.774 244.492 163.181 238.235C162.589 231.978 166.086 230.381 166.086 230.381C166.086 230.381 169.682 234.259 180.02 232.651C190.359 231.043 192.571 229.103 192.571 229.103Z" fill="white" stroke="#656C73" stroke-linecap="round" stroke-linejoin="round"/>
<path d="M195.418 228.662C195.387 235.496 187.324 240.889 177.405 240.681C167.485 240.473 159.481 234.791 159.512 227.956C159.543 221.122 167.623 215.741 177.54 215.934C187.456 216.128 195.439 221.844 195.418 228.662Z" fill="white" stroke="#656C73" stroke-linecap="round" stroke-linejoin="round"/>
<path d="M163.622 197.716C163.622 197.716 159.447 223.333 161.155 226.746C162.863 230.159 174.734 239.404 185.689 234.193C196.644 228.983 193.444 222.998 193.444 222.998L193.655 198.916C193.655 198.916 170.822 205.459 163.622 197.716Z" fill="white" stroke="#656C73" stroke-linecap="round" stroke-linejoin="round"/>
<path d="M163.654 197.752C163.654 197.752 159.46 223.545 161.173 226.981C161.328 227.286 161.515 227.574 161.73 227.842C184.788 221.43 192.112 206.544 193.772 202.366L193.8 199.007C193.8 199.007 170.877 205.549 163.654 197.752Z" fill="#656C73" stroke="#656C73" stroke-linecap="round" stroke-linejoin="round"/>
<path d="M196.977 198.721C196.932 205.559 188.866 210.937 178.949 210.743C169.033 210.549 161.032 204.88 161.074 198.029C161.116 191.178 169.185 185.813 179.102 186.007C189.018 186.201 197.026 191.897 196.977 198.721Z" fill="white" stroke="#656C73" stroke-linecap="round" stroke-linejoin="round"/>
<path d="M149.573 132.543C149.573 132.543 179.21 158.64 188.55 172.836C191.899 177.926 195.195 184.081 194.912 190.263C194.38 202.223 179.8 207.685 169.887 201.585C157.7 194.055 132.272 171.984 132.272 171.984C132.272 171.984 131.157 167.306 137.081 162.314C143.006 157.321 148.94 144.509 148.854 141.936C148.768 139.362 149.573 132.543 149.573 132.543Z" fill="white" stroke="#656C73" stroke-linecap="round" stroke-linejoin="round"/>
<path d="M169.548 201.626C171.261 202.682 173.157 203.421 175.139 203.804C174.807 203.576 174.461 203.35 174.084 203.117C162.869 196.166 144.049 159.685 144.049 159.685C143.14 158.866 142.046 158.268 140.856 157.94C139.68 159.577 138.317 161.08 136.794 162.42C130.878 167.403 131.991 172.074 131.991 172.074C131.991 172.074 157.381 194.109 169.548 201.626Z" fill="#656C73" stroke="#656C73" stroke-linecap="round" stroke-linejoin="round"/>
<path d="M145.362 128.691C145.362 128.691 149.973 128.004 151.949 136.35C153.925 144.695 147.288 159.546 143.831 166.417C140.374 173.288 137.21 176.292 120.77 176.251C104.331 176.211 89.6662 172.336 83.4357 163.695C77.2052 155.053 81.3492 148.656 86.0712 147.067C90.7933 145.477 115.024 136.851 124.625 130.727C129.71 127.577 134.579 124.112 139.203 120.351L145.362 128.691Z" fill="white" stroke="#656C73" stroke-linecap="round" stroke-linejoin="round"/>
<path d="M80.4668 150.189C80.3927 151.884 80.8504 153.569 81.7779 155.014C82.7055 156.459 84.0579 157.595 85.6519 158.268C91.3544 160.909 99.1324 163.385 122.194 154.349C145.256 145.312 149.262 131.716 146.786 127.513C144.905 124.664 142.398 122.263 139.453 120.49C132.068 130.411 122.08 138.157 110.534 142.918C91.607 150.418 80.4668 150.189 80.4668 150.189Z" fill="white" stroke="#656C73" stroke-linecap="round" stroke-linejoin="round"/>
<path d="M129.422 85.8489C133.549 93.6568 132.72 102.024 127.581 104.514C122.442 107.004 114.937 102.695 110.807 94.8737C106.676 87.0523 107.508 78.6984 112.647 76.2085C117.787 73.7185 125.305 78.0245 129.422 85.8489Z" fill="white" stroke="#656C73" stroke-linecap="round" stroke-linejoin="round"/>
<path d="M58.8536 96.5326C58.8536 96.5326 54.9738 100.544 57.2761 110.225C59.5784 119.906 72.1867 147.532 81.0777 152.73C89.9686 157.928 113.854 153.277 130.503 141.918C147.151 130.559 142.937 124.761 138.831 114.229C134.724 103.697 122.591 81.5268 114.256 76.9989C105.921 72.4709 98.8628 76.7091 84.3161 83.3145C75.5861 87.2742 67.0866 91.6865 58.8536 96.5326Z" fill="white" stroke="#656C73" stroke-linecap="round" stroke-linejoin="round"/>
<path d="M74.7418 113.86C76.8055 120.173 77.7987 126.756 77.6824 133.348C77.5566 139.098 77.8039 144.856 78.4229 150.587L66.5267 135.691C66.5267 135.691 67.5791 114.277 74.7418 113.86Z" fill="#656C73" stroke="#656C73" stroke-linecap="round" stroke-linejoin="round"/>
<path d="M88.2609 104.789C103.804 101.494 114.728 91.7037 112.659 82.9214C110.591 74.1391 96.3134 69.6906 80.7699 72.9855C65.2265 76.2804 54.3029 86.0709 56.3715 94.8532C58.4401 103.636 72.7175 108.084 88.2609 104.789Z" fill="white" stroke="#656C73" stroke-linecap="round" stroke-linejoin="round"/>
<path d="M71.1153 97.1249C71.1153 97.1249 67.5601 101.175 71.114 104.269C71.114 104.269 59.358 102.346 56.2088 98.6096C53.0595 94.8728 58.2676 88.2743 58.2676 88.2743L72.2094 94.694L71.1153 97.1249Z" fill="#656C73" stroke="#656C73" stroke-linecap="round" stroke-linejoin="round"/>
<path d="M85.8895 96.3497C105.063 92.3058 117.003 73.8823 112.559 55.1995C108.115 36.5167 88.9694 24.6495 69.7962 28.6933C50.623 32.7372 38.6827 51.1608 43.1267 69.8436C47.5708 88.5264 66.7163 100.394 85.8895 96.3497Z" fill="white" stroke="#656C73" stroke-linecap="round" stroke-linejoin="round"/>
<path d="M53.1079 37.664C48.2468 42.1023 44.8091 47.8085 43.1962 54.1161C41.5833 60.4236 41.8619 67.0721 43.9994 73.285C46.1369 79.4979 50.0451 85.0188 55.2674 89.2028C60.4898 93.3868 66.8108 96.0612 73.4922 96.9137C78.3533 92.4753 81.791 86.7691 83.4039 80.4616C85.0168 74.154 84.7382 67.5055 82.6007 61.2926C80.4632 55.0797 76.5551 49.5588 71.3327 45.3748C66.1103 41.1908 59.7893 38.5164 53.1079 37.664Z" fill="#656C73" stroke="#656C73" stroke-linecap="round" stroke-linejoin="round"/>
<path d="M90.5564 30.2244C85.7211 29.8548 80.8814 30.6077 76.4385 32.4207C71.9956 34.2338 68.0774 37.0548 65.0085 40.6499C61.9397 44.245 59.8085 48.5107 58.7917 53.0936C57.7749 57.6765 57.9017 62.4445 59.1617 67.0026C60.4216 71.5607 62.7784 75.7775 66.0366 79.3037C69.2949 82.83 73.3609 85.564 77.8977 87.2793C82.4344 88.9945 87.3113 89.6417 92.1241 89.167C96.937 88.6924 101.547 87.1096 105.573 84.5499C109.132 80.3555 111.601 75.3857 112.777 70.05C113.952 64.7143 113.801 59.1653 112.334 53.8602C110.868 48.5551 108.129 43.6456 104.342 39.5363C100.556 35.427 95.831 32.2354 90.5564 30.2244Z" fill="white" stroke="#656C73" stroke-linecap="round" stroke-linejoin="round"/>
<path d="M125.746 250.331C125.473 252.9 126.248 255.485 127.904 257.529C130.677 260.841 135.775 264.254 144.005 267.322C152.235 270.389 162.243 270.683 166.852 268.783C171.46 266.883 175.118 263.582 175.73 259.682C176.343 255.783 175.292 253.334 174.461 253.062C173.63 252.79 172.455 254.931 159.799 250.605C147.142 246.279 143.293 242.284 136.481 243.596C129.669 244.908 124.918 248.137 125.746 250.331Z" fill="white" stroke="#656C73" stroke-linecap="round" stroke-linejoin="round"/>
<path d="M157.935 240.685C157.935 240.685 164.993 246.526 169.013 248.308C173.033 250.089 175.346 251.075 174.555 255.352C173.764 259.629 171.256 265.442 161.311 266.376C151.357 267.401 141.32 264.705 133.211 258.829C125.23 252.894 124.44 249.545 126.229 247.994C128.017 246.444 137.311 246.819 142.159 245.792C147.007 244.765 151.471 240.926 153.258 239.621C155.045 238.316 156.358 238.125 157.935 240.685Z" fill="white" stroke="#656C73" stroke-linecap="round" stroke-linejoin="round"/>
<path d="M120.518 242.399C120.518 242.399 120.821 250.055 126.097 252.198C131.374 254.341 149.166 250.842 155.901 244.953C162.635 239.064 157.216 235.164 153.547 233.572C149.878 231.981 137.565 243.513 132.806 242.388C128.048 241.263 128.978 246.529 120.518 242.399Z" fill="white" stroke="#656C73" stroke-linecap="round" stroke-linejoin="round"/>
<path d="M116.448 210.411C116.448 210.411 118.527 240.41 120.577 245.265C122.628 250.12 130.125 251.654 144.379 246.621C158.633 241.587 160.157 235.535 156.283 231.651C154.207 229.588 150.621 212.181 150.621 212.181C150.621 212.181 133.332 221.356 116.448 210.411Z" fill="white" stroke="#656C73" stroke-linecap="round" stroke-linejoin="round"/>
<path d="M154.43 218.467L151.345 216.114C144.386 217.295 129.058 218.596 116.457 210.439C116.457 210.439 118.53 240.442 120.566 245.234C121.01 246.212 121.685 247.077 122.537 247.758C123.388 248.439 124.391 248.916 125.462 249.151C125.818 249.104 126.168 249.03 126.511 248.93C141.572 243.851 154.43 218.467 154.43 218.467Z" fill="#656C73" stroke="#656C73" stroke-linecap="round" stroke-linejoin="round"/>
<path d="M115.569 206.198C115.569 206.198 112.142 211.898 119.982 217.249C127.821 222.6 134.76 226.699 148.698 223.751C162.635 220.803 160.115 211.399 155.896 206.148C151.676 200.897 127.081 190.321 115.569 206.198Z" fill="white" stroke="#656C73" stroke-linecap="round" stroke-linejoin="round"/>
<path d="M156.24 198.822C153.571 192.728 149.218 187.446 145.741 181.836C142.263 176.226 138.282 170.165 132.431 166.542C124.411 161.575 97.5693 163.761 93.4235 170.135C89.2777 176.509 99.4632 195.504 114.404 208.283C121.352 214.233 130.304 219.974 139.913 220.463C145.137 220.79 150.269 219.199 154.286 216.005C159.586 211.46 158.845 204.773 156.261 198.847L156.24 198.822Z" fill="white" stroke="#656C73" stroke-linecap="round" stroke-linejoin="round"/>
<path d="M132.417 219.103C115.122 206.138 105.837 176.418 103.011 165.95C98.392 167.034 94.7234 168.627 93.4021 170.661C89.2994 176.977 99.3882 195.82 114.212 208.497C119.456 212.975 125.834 217.385 132.816 219.373L132.417 219.103Z" fill="#656C73" stroke="#656C73" stroke-linecap="round" stroke-linejoin="round"/>
<path d="M116.682 99.6905L94.5595 112.995C94.2133 113.193 93.9119 113.457 93.6726 113.771C93.4332 114.085 93.2608 114.442 93.1651 114.823C93.0694 115.204 93.0524 115.601 93.115 115.99C93.1776 116.38 93.3187 116.755 93.5301 117.093L101.276 129.456C101.699 130.133 102.377 130.623 103.163 130.821C103.949 131.018 104.778 130.906 105.471 130.51L127.482 117.416C128.172 117.016 128.668 116.367 128.865 115.608C129.062 114.848 128.944 114.04 128.535 113.356L120.929 100.777C120.724 100.431 120.45 100.128 120.123 99.8848C119.797 99.642 119.425 99.4647 119.029 99.3634C118.633 99.2621 118.221 99.2389 117.818 99.2951C117.415 99.3513 117.029 99.4857 116.682 99.6905Z" fill="white" stroke="#656C73" stroke-linecap="round" stroke-linejoin="round"/>
<path d="M105.519 118.697L105.519 118.697L105.52 118.699C105.604 119.051 105.579 119.42 105.447 119.757C105.315 120.094 105.082 120.386 104.776 120.593C104.47 120.801 104.106 120.916 103.73 120.922C103.354 120.928 102.983 120.826 102.666 120.629C102.348 120.432 102.098 120.15 101.945 119.818C101.792 119.487 101.743 119.12 101.804 118.764C101.865 118.408 102.034 118.078 102.291 117.817C102.547 117.555 102.88 117.373 103.247 117.296L103.249 117.295C103.492 117.243 103.744 117.238 103.991 117.281C104.237 117.323 104.472 117.413 104.683 117.544C104.894 117.674 105.076 117.844 105.22 118.041C105.363 118.239 105.465 118.462 105.519 118.697Z" fill="#4285F4" stroke="#656C73" stroke-width="0.750001"/>
<path d="M110.984 115.507C111.217 116.49 110.59 117.472 109.563 117.689C108.537 117.905 107.524 117.269 107.29 116.286C107.056 115.303 107.684 114.321 108.711 114.104C109.737 113.888 110.75 114.524 110.984 115.507Z" fill="#EA4335" stroke="#656C73" stroke-width="0.750001"/>
<path d="M116.423 112.31L116.423 112.312C116.509 112.665 116.486 113.034 116.355 113.373C116.224 113.711 115.991 114.004 115.685 114.213C115.379 114.422 115.014 114.537 114.638 114.544C114.261 114.55 113.89 114.448 113.571 114.251C113.253 114.053 113.002 113.77 112.849 113.438C112.696 113.106 112.648 112.738 112.71 112.382C112.772 112.025 112.942 111.695 113.201 111.434C113.459 111.172 113.793 110.991 114.161 110.916L114.161 110.916L114.163 110.915C114.652 110.812 115.165 110.903 115.589 111.165C116.012 111.428 116.311 111.84 116.423 112.31Z" fill="#34A853" stroke="#656C73" stroke-width="0.750001"/>
<path d="M122.008 108.504L122.009 108.505C122.094 108.859 122.071 109.228 121.94 109.566C121.809 109.905 121.576 110.197 121.27 110.406C120.964 110.615 120.6 110.731 120.223 110.737C119.846 110.744 119.475 110.641 119.157 110.444C118.838 110.247 118.588 109.964 118.435 109.632C118.282 109.3 118.233 108.932 118.295 108.576C118.357 108.219 118.528 107.889 118.786 107.627C119.044 107.366 119.378 107.185 119.746 107.109L119.746 107.109L119.748 107.109C120.237 107.006 120.75 107.096 121.174 107.359C121.597 107.621 121.896 108.033 122.008 108.504Z" fill="#FBBC04" stroke="#656C73" stroke-width="0.750001"/>
<path d="M74.7452 110.984C78.5561 118.929 76.7957 127.519 70.8038 130.149C64.8118 132.778 56.8627 128.483 53.0486 120.525C49.2345 112.567 50.9981 103.99 56.9868 101.347C62.9755 98.7041 70.9172 103.029 74.7452 110.984Z" fill="white" stroke="#656C73" stroke-linecap="round" stroke-linejoin="round"/>
<path d="M65.5149 145.306C65.5149 145.306 73.3993 129.159 70.7988 121.871C68.1982 114.584 60.8887 105.563 51.7193 111.02C42.55 116.477 36.408 146.344 38.1183 151.864C39.8287 157.384 43.1625 157.837 43.1625 157.837C43.1625 157.837 48.4044 151.281 56.0035 149.266C63.6026 147.25 65.5149 145.306 65.5149 145.306Z" fill="white" stroke="#656C73" stroke-linecap="round" stroke-linejoin="round"/>
<path d="M57.0882 170.221C65.9954 168.342 71.6822 160.363 69.79 152.401C67.8978 144.439 59.1432 139.508 50.236 141.387C41.3288 143.267 35.6421 151.246 37.5343 159.208C39.4265 167.17 48.1811 172.101 57.0882 170.221Z" fill="white" stroke="#656C73" stroke-linecap="round" stroke-linejoin="round"/>
<path d="M44.8523 157.781C43.2391 151.01 47.1842 144.25 53.9157 141.268C52.6472 141.267 51.3839 141.395 50.1466 141.649C41.2921 143.513 35.6342 151.43 37.5152 159.325C39.3962 167.22 48.1062 172.113 56.9051 170.261C58.1402 170 59.3418 169.613 60.4903 169.108C53.1046 169.098 46.4655 164.551 44.8523 157.781Z" fill="#656C73" stroke="#656C73" stroke-linecap="round" stroke-linejoin="round"/>
<path d="M82.5149 156.545C82.5149 156.545 64.5084 146.969 53.6692 148.869C42.83 150.769 39.1515 164.119 45.9197 170.575C52.688 177.032 77.8347 181.144 77.8347 181.144C77.8347 181.144 72.2776 166.174 82.5149 156.545Z" fill="white" stroke="#656C73" stroke-linecap="round" stroke-linejoin="round"/>
<path d="M95.9703 170.488C95.3881 178.813 89.3807 185.101 82.5696 184.567C75.7585 184.033 70.6889 176.841 71.2571 168.519C71.8253 160.196 77.8467 153.906 84.661 154.453C91.4754 155.001 96.5138 162.185 95.9703 170.488Z" fill="#656C73" stroke="#656C73" stroke-linecap="round" stroke-linejoin="round"/>
<path d="M105.4 156.854C105.4 156.854 107.371 160.511 110.624 160.255C113.878 159.999 117.784 158.958 118.512 162.029C118.784 163.446 118.513 164.905 117.752 166.127C116.992 167.349 115.793 168.25 114.383 168.659C111.711 169.44 109.831 169.837 104.101 166.975C98.3711 164.112 95.309 163.248 94.5016 161.705C93.6943 160.163 94.103 154.491 97.2573 154.688C100.045 155.096 102.778 155.823 105.4 156.854Z" fill="white" stroke="#656C73" stroke-linecap="round" stroke-linejoin="round"/>
<path d="M79.9513 158.274C79.9513 158.274 89.7838 149.531 93.826 148.678C97.8682 147.826 108.702 157.434 109.425 160.473C110.148 163.513 109.639 168.844 108.599 169.35C108.057 169.485 107.491 169.505 106.936 169.411C106.382 169.316 105.854 169.108 105.386 168.8C104.918 168.492 104.521 168.092 104.223 167.626C103.924 167.161 103.73 166.64 103.654 166.099C103.011 163.877 101.809 161.838 100.157 160.167L98.1885 159.423C98.1885 159.423 104.588 168.85 105.889 171.725C106.797 173.752 107.516 174.859 105.021 176.845C103.747 177.882 102.331 178.744 100.813 179.408C99.3283 180.451 97.7526 181.368 96.1029 182.147C94.3408 182.881 92.5117 183.459 90.6379 183.872C89.1346 184.807 87.5059 185.541 85.7954 186.053C83.8093 186.472 80.8764 183.898 77.8011 178.751C74.7258 173.603 75.0999 162.331 79.9513 158.274Z" fill="white" stroke="#656C73" stroke-linecap="round" stroke-linejoin="round"/>
<path d="M100.695 179.199C100.695 179.199 93.4208 161.782 87.481 158.611" stroke="#656C73" stroke-linecap="round" stroke-linejoin="round"/>
<path d="M90.2266 183.79C90.2266 183.79 86.3357 172.671 81.7026 166.718" stroke="#656C73" stroke-linecap="round" stroke-linejoin="round"/>
<path d="M98.2429 159.453C96.7834 157.608 95.2022 155.856 93.5095 154.208" stroke="#656C73" stroke-linecap="round" stroke-linejoin="round"/>
<path opacity="0.4" d="M193.291 46.1883L193.291 46.1894L109.547 44.4854L109.058 44.5882L109.072 44.6467L109.099 44.7006C109.4 45.29 109.694 45.8676 109.964 46.4624L109.993 46.5266L110.038 46.5808C110.092 46.6442 110.117 46.718 110.161 46.9032L110.171 46.9479L110.19 46.9902C110.242 47.108 110.311 47.2517 110.375 47.3846C110.42 47.4777 110.462 47.5654 110.494 47.6352C110.586 47.838 110.659 48.0219 110.703 48.2042L110.727 48.3078L110.792 48.3934C110.865 48.4897 110.901 48.613 110.956 48.8441L110.962 48.8666L110.969 48.8886C111.028 49.064 111.087 49.221 111.142 49.3697C111.244 49.6419 111.335 49.8863 111.401 50.1654L111.402 50.1666L111.402 50.1678L111.402 50.169L111.403 50.1702L111.403 50.1714L111.403 50.1725L111.403 50.1737L111.404 50.1749L111.404 50.1761L111.404 50.1773L111.404 50.1785L111.405 50.1796L111.405 50.1808L111.405 50.182L111.406 50.1832L111.406 50.1844L111.406 50.1856L111.406 50.1868L111.407 50.1879L111.407 50.1891L111.407 50.1903L111.408 50.1915L111.408 50.1927L111.408 50.1939L111.408 50.195L111.409 50.1962L111.409 50.1974L111.409 50.1986L111.41 50.1998L111.41 50.201L111.41 50.2021L111.41 50.2033L111.411 50.2045L111.411 50.2057L111.411 50.2069L111.412 50.2081L111.412 50.2093L111.412 50.2104L111.412 50.2116L111.413 50.2128L111.413 50.214L111.413 50.2152L111.413 50.2164L111.414 50.2175L111.414 50.2187L111.414 50.2199L111.415 50.2211L111.415 50.2223L111.415 50.2235L111.415 50.2246L111.416 50.2258L111.416 50.227L111.416 50.2282L111.417 50.2294L111.417 50.2306L111.417 50.2318L111.417 50.2329L111.418 50.2341L111.418 50.2353L111.418 50.2365L111.419 50.2377L111.419 50.2389L111.419 50.24L111.419 50.2412L111.42 50.2424L111.42 50.2436L111.42 50.2448L111.421 50.246L111.421 50.2472L111.421 50.2483L111.421 50.2495L111.422 50.2507L111.422 50.2519L111.422 50.2531L111.423 50.2543L111.423 50.2554L111.423 50.2566L111.423 50.2578L111.424 50.259L111.424 50.2602L111.424 50.2614L111.424 50.2626L111.425 50.2637L111.425 50.2649L111.425 50.2661L111.426 50.2673L111.426 50.2685L111.426 50.2697L111.426 50.2708L111.427 50.272L111.427 50.2732L111.427 50.2744L111.428 50.2756L111.428 50.2768L111.428 50.2779L111.428 50.2791L111.429 50.2803L111.429 50.2815L111.429 50.2827L111.43 50.2839L111.43 50.2851L111.43 50.2862L111.43 50.2874L111.431 50.2886L111.431 50.2898L111.431 50.291L111.432 50.2922L111.432 50.2933L111.432 50.2945L111.432 50.2957L111.433 50.2969L111.433 50.2981L111.433 50.2993L111.433 50.3004L111.434 50.3016L111.434 50.3028L111.434 50.304L111.435 50.3052L111.435 50.3064L111.435 50.3076L111.435 50.3087L111.436 50.3099L111.436 50.3111L111.436 50.3123L111.437 50.3135L111.437 50.3147L111.437 50.3158L111.437 50.317L111.438 50.3182L111.438 50.3194L111.438 50.3206L111.439 50.3218L111.439 50.323L111.439 50.3241L111.439 50.3253L111.44 50.3265L111.44 50.3277L111.44 50.3289L111.441 50.3301L111.441 50.3312L111.441 50.3324L111.441 50.3336L111.442 50.3348L111.442 50.336L111.442 50.3372L111.442 50.3383L111.443 50.3395L111.443 50.3407L111.443 50.3419L111.444 50.3431L111.444 50.3443L111.444 50.3455L111.444 50.3466L111.445 50.3478L111.445 50.349L111.445 50.3502L111.446 50.3514L111.446 50.3526L111.446 50.3537L111.446 50.3549L111.447 50.3561L111.447 50.3573L111.447 50.3585L111.448 50.3597L111.448 50.3609L111.448 50.362L111.448 50.3632L111.449 50.3644L111.449 50.3656L111.449 50.3668L111.45 50.368L111.45 50.3691L111.45 50.3703L111.45 50.3715L111.451 50.3727L111.451 50.3739L111.451 50.3751L111.452 50.3762L111.452 50.3774L111.452 50.3786L111.452 50.3798L111.453 50.381L111.453 50.3822L111.453 50.3834L111.453 50.3845L111.454 50.3857L111.454 50.3869L111.454 50.3881L111.455 50.3893L111.455 50.3905L111.455 50.3916L111.455 50.3928L111.456 50.394L111.456 50.3952L111.456 50.3964L111.457 50.3976L111.457 50.3987L111.457 50.3999L111.457 50.4011L111.458 50.4023L111.458 50.4035L111.458 50.4047L111.459 50.4059L111.459 50.407L111.459 50.4082L111.459 50.4094L111.46 50.4106L111.46 50.4118L111.46 50.413L111.461 50.4141L111.461 50.4153L111.461 50.4165L111.461 50.4177L111.462 50.4189L111.462 50.4201L111.462 50.4213L111.462 50.4224L111.463 50.4236L111.463 50.4248L111.463 50.426L111.464 50.4272L111.464 50.4284L111.464 50.4295L111.464 50.4307L111.465 50.4319L111.465 50.4331L111.465 50.4343L111.466 50.4355L111.466 50.4366L111.466 50.4378L111.466 50.439L111.467 50.4402L111.467 50.4414L111.467 50.4426L111.468 50.4438L111.468 50.4449L111.468 50.4461L111.468 50.4473L111.469 50.4485L111.469 50.4497L111.469 50.4509L111.47 50.452L111.47 50.4532L111.47 50.4544L111.47 50.4556L111.471 50.4568L111.471 50.458L111.471 50.4592L111.471 50.4603L111.472 50.4615L111.472 50.4627L111.472 50.4639L111.473 50.4651L111.473 50.4663L111.473 50.4674L111.473 50.4686L111.474 50.4698L111.474 50.471L111.474 50.4722L111.475 50.4734L111.475 50.4745L111.475 50.4757L111.475 50.4769L111.476 50.4781L111.476 50.4793L111.476 50.4805L111.477 50.4817L111.477 50.4828L111.477 50.484L111.477 50.4852L111.478 50.4864L111.478 50.4876L111.478 50.4888L111.479 50.4899L111.479 50.4911L111.479 50.4923L111.479 50.4935L111.48 50.4947L111.48 50.4959L111.48 50.4971L111.481 50.4982L111.481 50.4994L111.481 50.5006L111.481 50.5018L111.482 50.503L111.482 50.5042L111.482 50.5053L111.482 50.5065L111.483 50.5077L111.483 50.5089L111.483 50.5101L111.484 50.5113L111.484 50.5124L111.484 50.5136L111.484 50.5148L111.485 50.516L111.485 50.5172L111.485 50.5184L111.486 50.5196L111.486 50.5207L111.486 50.5219L111.486 50.5231L111.487 50.5243L111.487 50.5255L111.487 50.5267L111.488 50.5278L111.488 50.529L111.488 50.5302L111.488 50.5314L111.489 50.5326L111.489 50.5338L111.489 50.5349L111.49 50.5361L111.49 50.5373L111.49 50.5385L111.49 50.5397L111.491 50.5409L111.491 50.5421L111.491 50.5432L111.491 50.5444L111.492 50.5456L111.492 50.5468L111.492 50.548L111.493 50.5492L111.493 50.5503L111.493 50.5515L111.493 50.5527L111.494 50.5539L111.494 50.5551L111.494 50.5563L111.495 50.5575L111.495 50.5586L111.495 50.5598L111.495 50.561L111.496 50.5622L111.496 50.5634L111.496 50.5646L111.497 50.5657L111.497 50.5669L111.497 50.5681L111.497 50.5693L111.498 50.5705L111.498 50.5717L111.498 50.5728L111.499 50.574L111.499 50.5752L111.499 50.5764L111.499 50.5776L111.5 50.5788L111.5 50.58L111.5 50.5811L111.5 50.5823L111.501 50.5835L111.501 50.5847L111.501 50.5859L111.502 50.5871L111.502 50.5882L111.502 50.5894L111.502 50.5906L111.503 50.5918L111.503 50.593L111.503 50.5942L111.504 50.5953L111.504 50.5965L111.504 50.5977L111.504 50.5989L111.505 50.6001L111.505 50.6013L111.505 50.6025L111.506 50.6036L111.506 50.6048L111.506 50.606L111.506 50.6072L111.507 50.6084L111.507 50.6096L111.507 50.6107L111.508 50.6119L111.508 50.6131L111.508 50.6143L111.508 50.6155L111.509 50.6167L111.509 50.6179L111.509 50.619L111.51 50.6202L111.51 50.6214L111.51 50.6226L111.51 50.6238L111.511 50.625L111.511 50.6261L111.511 50.6273L111.511 50.6285L111.512 50.6297L111.512 50.6309L111.512 50.6321L111.513 50.6332L111.513 50.6344L111.513 50.6356L111.513 50.6368L111.514 50.638L111.514 50.6392L111.514 50.6404L111.515 50.6415L111.515 50.6427L111.515 50.6439L111.515 50.6451L111.516 50.6463L111.516 50.6475L111.516 50.6486L111.517 50.6498L111.517 50.651L111.517 50.6522L111.517 50.6534L111.518 50.6546L111.518 50.6558L111.518 50.6569L111.519 50.6581L111.519 50.6593L111.519 50.6605L111.519 50.6617L111.52 50.6629L111.52 50.664L111.52 50.6652L111.52 50.6664L111.521 50.6676L111.521 50.6688L111.521 50.67L111.522 50.6711L111.522 50.6723L111.522 50.6735L111.522 50.6747L111.523 50.6759L111.523 50.6771L111.523 50.6783L111.524 50.6794L111.524 50.6806L111.524 50.6818L111.524 50.683L111.525 50.6842L111.525 50.6854L111.525 50.6865L111.526 50.6877L111.526 50.6889L111.526 50.6901L111.526 50.6913L111.527 50.6925L111.527 50.6937L111.527 50.6948L111.528 50.696L111.528 50.6972L111.528 50.6984L111.528 50.6996L111.529 50.7008L111.529 50.7019L111.529 50.7031L111.529 50.7043L111.53 50.7055L111.53 50.7067L111.53 50.7079L111.531 50.709L111.531 50.7102L111.531 50.7114L111.531 50.7126L111.532 50.7138L111.532 50.715L111.532 50.7162L111.533 50.7173L111.533 50.7185L111.533 50.7197L111.533 50.7209L111.534 50.7221L111.534 50.7233L111.534 50.7244L111.535 50.7256L111.535 50.7268L111.535 50.728L111.535 50.7292L111.536 50.7304L111.536 50.7315L111.536 50.7327L111.537 50.7339L111.537 50.7351L111.537 50.7363L111.537 50.7375L111.538 50.7387L111.538 50.7398L111.538 50.741L111.539 50.7422L111.539 50.7434L111.539 50.7446L111.539 50.7458L111.54 50.7469L111.54 50.7481L111.54 50.7493L111.54 50.7505L111.541 50.7517L111.541 50.7529L111.541 50.7541L111.542 50.7552L111.542 50.7564L111.542 50.7576L111.542 50.7588L111.543 50.76L111.543 50.7612L111.543 50.7623L111.544 50.7635L111.544 50.7647L111.544 50.7659L111.544 50.7671L111.545 50.7683L111.545 50.7695L111.545 50.7706L111.546 50.7718L111.546 50.7755L111.547 50.7791L111.548 50.7827L111.549 50.7864L111.55 50.79L111.551 50.7936L111.552 50.7973L111.552 50.8009L111.553 50.8046L111.554 50.8082L111.555 50.8119L111.556 50.8155L111.557 50.8192L111.558 50.8228L111.559 50.8265L111.559 50.8301L111.56 50.8338L111.561 50.8374L111.562 50.8411L111.563 50.8448L111.564 50.8484L111.565 50.8521L111.565 50.8558L111.566 50.8594L111.567 50.8631L111.568 50.8668L111.569 50.8704L111.57 50.8741L111.571 50.8778L111.572 50.8815L111.572 50.8851L111.573 50.8888L111.574 50.8925L111.575 50.8962L111.576 50.8999L111.577 50.9035L111.578 50.9072L111.579 50.9109L111.579 50.9146L111.58 50.9183L111.581 50.922L111.582 50.9257L111.583 50.9294L111.584 50.9331L111.585 50.9368L111.586 50.9405L111.587 50.9442L111.587 50.9479L111.588 50.9516L111.589 50.9553L111.59 50.959L111.591 50.9627L111.592 50.9664L111.593 50.9701L111.594 50.9738L111.594 50.9775L111.595 50.9812L111.596 50.9849L111.597 50.9886L111.598 50.9924L111.599 50.9961L111.6 50.9998L111.601 51.0035L111.602 51.0072L111.602 51.011L111.603 51.0147L111.604 51.0184L111.605 51.0221L111.606 51.0259L111.607 51.0296L111.608 51.0333L111.609 51.0371L111.609 51.0408L111.61 51.0445L111.611 51.0483L111.612 51.052L111.613 51.0557L111.614 51.0595L111.615 51.0632L111.616 51.067L111.617 51.0707L111.617 51.0744L111.618 51.0782L111.619 51.0819L111.62 51.0857L111.621 51.0894L111.622 51.0932L111.623 51.0969L111.624 51.1007L111.625 51.1044L111.626 51.1082L111.626 51.1119L111.627 51.1157L111.628 51.1195L111.629 51.1232L111.63 51.127L111.631 51.1307L111.632 51.1345L111.633 51.1383L111.634 51.142L111.634 51.1458L111.635 51.1496L111.636 51.1533L111.637 51.1571L111.638 51.1609L111.639 51.1646L111.64 51.1684L111.641 51.1722L111.642 51.176L111.643 51.1797L111.643 51.1835L111.644 51.1873L111.645 51.1911L111.646 51.1948L111.647 51.1986L111.648 51.2024L111.649 51.2062L111.65 51.21L111.651 51.2138L111.652 51.2175L111.652 51.2213L111.653 51.2251L111.654 51.2289L111.655 51.2327L111.656 51.2365L111.657 51.2403L111.658 51.2441L111.659 51.2479L111.66 51.2517L111.661 51.2555L111.661 51.2593L111.662 51.2631L111.663 51.2669L111.664 51.2707L111.665 51.2745L111.666 51.2783L111.667 51.2821L111.668 51.2859L111.669 51.2897L111.67 51.2935L111.67 51.2973L111.671 51.3011L111.672 51.3049L111.673 51.3087L111.674 51.3125L111.675 51.3163L111.676 51.3202L111.677 51.324L111.678 51.3278L111.679 51.3316L111.68 51.3354L111.68 51.3392L111.681 51.343L111.682 51.3469L111.683 51.3507L111.684 51.3545L111.685 51.3583L111.686 51.3622L111.687 51.366L111.688 51.3698L111.689 51.3736L111.69 51.3775L111.69 51.3813L111.691 51.3851L111.692 51.3889L111.693 51.3928L111.694 51.3966L111.695 51.4004L111.696 51.4043L111.697 51.4081L111.698 51.4119L111.699 51.4158L111.7 51.4196L111.7 51.4234L111.701 51.4273L111.702 51.4311L111.703 51.4349L111.704 51.4388L111.705 51.4426L111.706 51.4465L111.707 51.4503L111.708 51.4541L111.709 51.458L111.71 51.4618L111.71 51.4657L111.711 51.4695L111.712 51.4734L111.713 51.4772L111.714 51.4811L111.715 51.4849L111.716 51.4888L111.717 51.4926L111.718 51.4965L111.719 51.5003L111.72 51.5042L111.721 51.508L111.721 51.5119L111.722 51.5157L111.723 51.5196L111.724 51.5234L111.725 51.5273L111.726 51.5312L111.727 51.535L111.728 51.5389L111.729 51.5427L111.73 51.5466L111.731 51.5504L111.732 51.5543L111.732 51.5582L111.733 51.562L111.734 51.5659L111.735 51.5698L111.736 51.5736L111.737 51.5775L111.738 51.5814L111.739 51.5852L111.74 51.5891L111.741 51.593L111.742 51.5968L111.743 51.6007L111.744 51.6046L111.744 51.6084L111.745 51.6123L111.746 51.6162L111.747 51.62L111.748 51.6239L111.749 51.6278L111.75 51.6317L111.751 51.6355L111.752 51.6394L111.753 51.6433L111.754 51.6472L111.755 51.651L111.755 51.6549L111.756 51.6588L111.757 51.6627L111.758 51.6666L111.759 51.6704L111.76 51.6743L111.761 51.6782L111.762 51.6821L111.763 51.686L111.764 51.6898L111.765 51.6937L111.766 51.6976L111.767 51.7015L111.767 51.7054L111.768 51.7093L111.769 51.7131L111.77 51.717L111.771 51.7209L111.772 51.7248L111.773 51.7287L111.774 51.7326L111.775 51.7365L111.776 51.7404L111.777 51.7442L111.778 51.7481L111.779 51.752L111.779 51.7559L111.78 51.7598L111.781 51.7637L111.782 51.7676L111.783 51.7715L111.784 51.7754L111.785 51.7793L111.786 51.7832L111.787 51.787L111.788 51.7909L111.789 51.7948L111.79 51.7987L111.791 51.8026L111.792 51.8065L111.792 51.8104L111.793 51.8143L111.794 51.8182L111.795 51.8221L111.796 51.826L111.797 51.8299L111.798 51.8338L111.799 51.8377L111.8 51.8416L111.801 51.8455L111.802 51.8494L111.803 51.8533L111.804 51.8572L111.804 51.8611L111.805 51.865L111.806 51.8689L111.807 51.8728L111.808 51.8767L111.809 51.8806L111.81 51.8845L111.811 51.8884L111.812 51.8923L111.813 51.8962L111.814 51.9001L111.815 51.904L111.816 51.9079L111.817 51.9118L111.817 51.9157L111.818 51.9196L111.819 51.9236L111.82 51.9275L111.821 51.9314L111.822 51.9353L111.823 51.9392L111.824 51.9431L111.825 51.947L111.826 51.9509L111.827 51.9548L111.828 51.9587L111.829 51.9626L111.83 51.9665L111.83 51.9704L111.831 51.9744L111.832 51.9783L111.833 51.9822L111.834 51.9861L111.835 51.99L111.836 51.9939L111.837 51.9978L111.838 52.0017L111.839 52.0056L111.84 52.0095L111.841 52.0134L111.842 52.0174L111.843 52.0213L111.844 52.0252L111.844 52.0291L111.845 52.033L111.846 52.0369L111.847 52.0408L111.848 52.0447L111.849 52.0486L111.85 52.0526L111.851 52.0565L111.852 52.0604L111.853 52.0643L111.854 52.0682L111.855 52.0721L111.856 52.076L111.857 52.0799L111.857 52.0839L111.858 52.0878L111.859 52.0917L111.86 52.0956L111.861 52.0995L111.862 52.1034L111.863 52.1073L111.864 52.1113L111.865 52.1152L111.866 52.1191L111.867 52.123L111.868 52.1269L111.869 52.1308L111.87 52.1347L111.87 52.1387L111.871 52.1426L111.872 52.1465L111.873 52.1504L111.874 52.1543L111.875 52.1582L111.876 52.1621L111.877 52.166L111.878 52.17L111.879 52.1739L111.88 52.1778L111.881 52.1817L111.882 52.1856L111.883 52.1895L111.884 52.1934L111.884 52.1974L111.885 52.2013L111.886 52.2052L111.887 52.2091L111.888 52.213L111.889 52.2169L111.89 52.2208L111.891 52.2248L111.892 52.2287L111.893 52.2326L111.894 52.2365L111.895 52.2404L111.896 52.2443L111.897 52.2482L111.897 52.2521L111.898 52.2561L111.899 52.26L111.9 52.2639L111.901 52.2678L111.902 52.2717L111.903 52.2756L111.904 52.2795L111.905 52.2835L111.906 52.2874L111.907 52.2913L111.908 52.2952L111.909 52.2991L111.91 52.303L111.91 52.3069L111.911 52.3108L111.912 52.3147L111.913 52.3187L111.914 52.3226L111.915 52.3265L111.916 52.3304L111.917 52.3343L111.918 52.3382L111.919 52.3421L111.92 52.346L111.921 52.3499L111.922 52.3538L111.923 52.3578L111.923 52.3617L111.924 52.3656L111.925 52.3695L111.926 52.3734L111.927 52.3773L111.928 52.3812L111.929 52.3851L111.93 52.389L111.931 52.3929L111.932 52.3968L111.933 52.4007L111.934 52.4046L111.935 52.4086L111.936 52.4125L111.936 52.4164L111.937 52.4203L111.938 52.4242L111.939 52.4281L111.94 52.432L111.941 52.4359L111.942 52.4398L111.943 52.4437L111.944 52.4476L111.945 52.4515L111.946 52.4554L111.947 52.4593L111.948 52.4632L111.949 52.4671L111.949 52.471L111.95 52.4749L111.951 52.4788L111.952 52.4827L111.953 52.4866L111.954 52.4905L111.955 52.4944L111.956 52.4983L111.957 52.5022L111.958 52.5061L111.959 52.51L111.96 52.5139L111.961 52.5178L111.962 52.5217L111.962 52.5256L111.963 52.5295L111.964 52.5334L111.965 52.5373L111.966 52.5412L111.967 52.5451L111.968 52.549L111.969 52.5529L111.97 52.5568L111.971 52.5607L111.972 52.5645L111.973 52.5684L111.974 52.5723L111.974 52.5762L111.975 52.5801L111.976 52.584L111.977 52.5879L111.978 52.5918L111.979 52.5957L111.98 52.5996L111.981 52.6034L111.982 52.6073L111.983 52.6112L111.984 52.6151L111.985 52.619L111.986 52.6229L111.987 52.6268L111.987 52.6307L111.988 52.6345L111.989 52.6384L111.99 52.6423L111.991 52.6462L111.992 52.6501L111.993 52.6539L111.994 52.6578L111.995 52.6617L111.996 52.6656L111.997 52.6695L111.998 52.6734L111.999 52.6772L111.999 52.6811L112 52.685L112.001 52.6889L112.002 52.6927L112.003 52.6966L112.004 52.7005L112.005 52.7044L112.006 52.7082L112.007 52.7121L112.008 52.716L112.009 52.7199L112.01 52.7237L112.01 52.7276L112.011 52.7315L112.012 52.7353L112.013 52.7392L112.014 52.7429L112.015 52.7466L112.016 52.7503L112.017 52.754L112.018 52.7578L112.019 52.7615L112.019 52.7652L112.02 52.7689L112.021 52.7726L112.022 52.7763L112.023 52.78L112.024 52.7837L112.025 52.7874L112.026 52.7911L112.026 52.7948L112.027 52.7985L112.028 52.8023L112.029 52.806L112.03 52.8097L112.031 52.8134L112.032 52.8171L112.033 52.8208L112.034 52.8245L112.034 52.8282L112.035 52.8319L112.036 52.8356L112.037 52.8393L112.038 52.843L112.039 52.8467L112.04 52.8504L112.041 52.8541L112.041 52.8578L112.042 52.8615L112.043 52.8652L112.044 52.8689L112.045 52.8726L112.046 52.8763L112.047 52.88L112.048 52.8837L112.048 52.8874L112.049 52.8911L112.05 52.8948L112.051 52.8985L112.052 52.9022L112.053 52.9059L112.054 52.9096L112.055 52.9133L112.056 52.917L112.056 52.9207L112.057 52.9244L112.058 52.9281L112.059 52.9318L112.06 52.9355L112.061 52.9392L112.062 52.9429L112.063 52.9466L112.063 52.9503L112.064 52.954L112.065 52.9577L112.066 52.9614L112.067 52.9651L112.068 52.9687L112.069 52.9724L112.07 52.9761L112.07 52.9798L112.071 52.9835L112.072 52.9872L112.073 52.9909L112.074 52.9946L112.075 52.9983L112.076 53.002L112.077 53.0057L112.077 53.0094L112.078 53.0131L112.079 53.0167L112.08 53.0204L112.081 53.0241L112.082 53.0278L112.083 53.0315L112.084 53.0352L112.084 53.0389L112.085 53.0426L112.086 53.0463L112.087 53.05L112.088 53.0537L112.089 53.0573L112.09 53.061L112.091 53.0647L112.092 53.0684L112.092 53.0721L112.093 53.0758L112.094 53.0795L112.095 53.0832L112.096 53.0868L112.097 53.0905L112.098 53.0942L112.099 53.0979L112.099 53.1016L112.1 53.1053L112.101 53.109L112.102 53.1127L112.103 53.1163L112.104 53.12L112.105 53.1237L112.106 53.1274L112.106 53.1311L112.107 53.1348L112.108 53.1384L112.109 53.1421L112.11 53.1458L112.111 53.1495L112.112 53.1532L112.113 53.1569L112.113 53.1606L112.114 53.1642L112.115 53.1679L112.116 53.1716L112.117 53.1753L112.118 53.179L112.119 53.1827L112.12 53.1863L112.12 53.19L112.121 53.1937L112.122 53.1974L112.123 53.2011L112.124 53.2047L112.125 53.2084L112.126 53.2121L112.127 53.2158L112.127 53.2195L112.128 53.2232L112.129 53.2268L112.13 53.2305L112.131 53.2342L112.132 53.2379L112.133 53.2416L112.134 53.2452L112.134 53.2489L112.135 53.2526L112.136 53.2563L112.137 53.26L112.138 53.2636L112.139 53.2673L112.14 53.271L112.141 53.2747L112.141 53.2784L112.142 53.282L112.143 53.2857L112.144 53.2894L112.145 53.2931L112.146 53.2967L112.147 53.3004L112.148 53.3041L112.148 53.3078L112.149 53.3115L112.15 53.3151L112.151 53.3188L112.152 53.3225L112.153 53.3262L112.154 53.3298L112.155 53.3335L112.155 53.3372L112.156 53.3409L112.157 53.3445L112.158 53.3482L112.159 53.3519L112.16 53.3556L112.161 53.3593L112.162 53.3629L112.162 53.3666L112.163 53.3703L112.164 53.374L112.165 53.3776L112.166 53.3813L112.167 53.385L112.168 53.3887L112.169 53.3923L112.169 53.396L112.17 53.3997L112.171 53.4034L112.172 53.407L112.173 53.4107L112.174 53.4144L112.175 53.4181L112.176 53.4217L112.176 53.4254L112.177 53.4291L112.178 53.4328L112.179 53.4364L112.18 53.4401L112.181 53.4438L112.182 53.4475L112.182 53.4511L112.183 53.4548L112.184 53.4585L112.185 53.4622L112.186 53.4658L112.187 53.4695L112.188 53.4732L112.189 53.4768L112.189 53.4805L112.19 53.4842L112.191 53.4879L112.192 53.4915L112.193 53.4952L112.194 53.4989L112.195 53.5026L112.196 53.5062L112.196 53.5099L112.197 53.5136L112.198 53.5172L112.199 53.5209L112.2 53.5246L112.201 53.5283L112.202 53.5319L112.203 53.5356L112.203 53.5393L112.204 53.543L112.205 53.5466L112.206 53.5503L112.207 53.554L112.208 53.5576L112.209 53.5613L112.21 53.565L112.21 53.5687L112.211 53.5723L112.212 53.576L112.213 53.5797L112.214 53.5834L112.215 53.587L112.216 53.5907L112.217 53.5944L112.217 53.598L112.218 53.6017L112.219 53.6054L112.22 53.6091L112.221 53.6127L112.222 53.6164L112.223 53.6201L112.224 53.6237L112.224 53.6274L112.225 53.6311L112.226 53.6348L112.227 53.6384L112.228 53.6421L112.229 53.6458L112.23 53.6494L112.231 53.6531L112.231 53.6568L112.232 53.6605L112.233 53.6641L112.234 53.6678L112.235 53.6715L112.236 53.6751L112.237 53.6788L112.237 53.6825L112.238 53.6862L112.239 53.6898L112.24 53.6935L112.241 53.6972L112.242 53.7008L112.243 53.7045L112.244 53.7082L112.244 53.7119L112.245 53.7155L112.246 53.7192L112.247 53.7229L112.248 53.7265L112.249 53.7302L112.25 53.7339L112.251 53.7376L112.251 53.7412L112.252 53.7449L112.253 53.7486L112.254 53.7522L112.255 53.7559L112.256 53.7596L112.257 53.7633L112.258 53.7669L112.258 53.7706L112.259 53.7743L112.26 53.778L112.261 53.7816L112.262 53.7853L112.263 53.789L112.264 53.7926L112.265 53.7963L112.265 53.8L112.266 53.8037L112.267 53.8073L112.268 53.811L112.269 53.8147L112.27 53.8183L112.271 53.822L112.272 53.8257L112.272 53.8294L112.273 53.833L112.274 53.8367L112.275 53.8404L112.276 53.8441L112.277 53.8477L112.278 53.8514L112.279 53.8551L112.279 53.8587L112.28 53.8624L112.281 53.8661L112.282 53.8698L112.283 53.8734L112.284 53.8771L112.285 53.8808L112.286 53.8845L112.286 53.8881L112.287 53.8918L112.288 53.8955L112.289 53.8991L112.29 53.9028L112.291 53.9065L112.292 53.9102L112.292 53.9138L112.293 53.9175L112.294 53.9212L112.295 53.9249L112.296 53.9285L112.297 53.9322L112.298 53.9359L112.299 53.9396L112.299 53.9432L112.3 53.9469L112.301 53.9506L112.302 53.9543L112.303 53.9579L112.304 53.9616L112.305 53.9653L112.306 53.969L112.306 53.9726L112.307 53.9763L112.308 53.98L112.309 53.9837L112.31 53.9873L112.311 53.991L112.312 53.9947L112.313 53.9984L112.313 54.002L112.314 54.0057L112.315 54.0094L112.316 54.0131L112.317 54.0167L112.318 54.0204L112.319 54.0241L112.32 54.0278L112.32 54.0315L112.321 54.0351L112.322 54.0388L112.323 54.0425L112.324 54.0462L112.325 54.0498L112.326 54.0535L112.327 54.0572L112.327 54.0609L112.328 54.0646L112.329 54.0682L112.33 54.0719L112.331 54.0756L112.332 54.0793L112.333 54.0829L112.334 54.0866L112.334 54.0903L112.335 54.094L112.336 54.0977L112.337 54.1013L112.338 54.105L112.339 54.1087L112.34 54.1124L112.341 54.1161L112.341 54.1197L112.342 54.1234L112.343 54.1271L112.344 54.1308L112.345 54.1345L112.346 54.1381L112.347 54.1418L112.348 54.1455L112.348 54.1492L112.349 54.1529L112.35 54.1565L112.351 54.1602L112.352 54.1639L112.353 54.1676L112.354 54.1713L112.355 54.175L112.355 54.1786L112.356 54.1823L112.357 54.186L112.358 54.1897L112.359 54.1934L112.36 54.1971L112.361 54.2007L112.362 54.2044L112.362 54.2081L112.363 54.2118L112.364 54.2155L112.365 54.2192L112.366 54.2228L112.367 54.2265L112.368 54.2302L112.369 54.2339L112.369 54.2376L112.37 54.2413L112.371 54.245L112.372 54.2486L112.373 54.2523L112.374 54.256L112.375 54.2597L112.376 54.2634L112.376 54.2671L112.377 54.2708L112.378 54.2744L112.379 54.2781L112.38 54.2818L112.381 54.2855L112.382 54.2892L112.383 54.2929L112.383 54.2966L112.384 54.3003L112.385 54.3039L112.386 54.3076L112.387 54.3113L112.388 54.315L112.389 54.3187L112.39 54.3224L112.39 54.3261L112.391 54.3298L112.392 54.3335L112.393 54.3372L112.394 54.3408L112.395 54.3445L112.396 54.3482L112.397 54.3519L112.398 54.3556L112.398 54.3593L112.399 54.363L112.4 54.3667L112.401 54.3704L112.402 54.3741L112.403 54.3778L112.404 54.3815L112.405 54.3852L112.405 54.3888L112.406 54.3925L112.407 54.3962L112.408 54.3999L112.409 54.4036L112.41 54.4073L112.411 54.411L112.412 54.4147L112.412 54.4184L112.413 54.4221L112.414 54.4258L112.415 54.4295L112.416 54.4332L112.417 54.4369L112.418 54.4406L112.419 54.4443L112.419 54.448L112.42 54.4517L112.421 54.4554L112.422 54.4591L112.423 54.4628L112.424 54.4665L112.425 54.4702L112.426 54.4739L112.427 54.4776L112.427 54.4813L112.428 54.485L112.429 54.4887L112.43 54.4924L112.431 54.4961L112.432 54.4998L112.433 54.5035L112.434 54.5072L112.434 54.5109L112.435 54.5146L112.436 54.5183L112.437 54.522L112.438 54.5257L112.439 54.5294L112.44 54.5331L112.441 54.5368L112.441 54.5405L112.442 54.5442L112.443 54.5479L112.444 54.5516L112.445 54.5553L112.446 54.559L112.447 54.5627L112.448 54.5664L112.449 54.5701L112.449 54.5738L112.45 54.5776L112.451 54.5813L112.452 54.585L112.453 54.5887L112.454 54.5924L112.455 54.5961L112.456 54.5998L112.456 54.6035L112.457 54.6072L112.458 54.6109L112.459 54.6146L112.46 54.6183L112.461 54.6221L112.462 54.6258L112.596 55.1901C112.616 55.3068 112.646 55.4569 112.675 55.5993C112.697 55.7088 112.718 55.8137 112.733 55.8954C112.754 56.0088 112.77 56.1062 112.778 56.1852C112.785 56.2569 112.784 56.2905 112.783 56.2977C112.783 56.2992 112.783 56.2996 112.783 56.2988C112.751 56.49 112.761 56.6212 112.786 56.7572C112.79 56.782 112.795 56.8052 112.799 56.8283C112.814 56.9077 112.829 56.9856 112.842 57.1205C112.858 57.2987 112.877 57.5464 112.895 57.7768C112.913 58.0127 112.93 58.2305 112.941 58.3371C112.944 58.3675 112.947 58.3942 112.95 58.4187C112.966 58.5675 112.974 58.6364 112.985 58.9837C112.991 59.1887 112.994 59.4415 112.996 59.673C112.997 59.7115 112.997 59.7495 112.997 59.7868C112.999 59.9688 113.001 60.1317 113.004 60.2249C113.005 60.2764 113.002 60.3199 112.997 60.385C112.995 60.4157 112.992 60.4513 112.99 60.4948C112.984 60.5949 112.979 60.7318 113.006 60.8817C113.006 61.2821 112.99 61.658 112.974 62.0498C112.972 62.1098 112.969 62.1702 112.967 62.2311L112.942 62.6671C112.852 63.8972 112.694 65.1208 112.468 66.3326L112.443 66.4626L112.481 66.5691C112.388 67.0768 112.281 67.5774 112.162 68.0821C112.126 68.1931 112.095 68.3059 112.071 68.4202C111.948 68.9132 111.808 69.3975 111.666 69.8915L111.57 70.1987C111.57 70.1997 111.57 70.2006 111.569 70.2016C111.403 70.7125 111.234 71.2083 111.052 71.7061C111.052 71.7065 111.052 71.7069 111.052 71.7073L110.974 71.9172C110.974 71.9177 110.973 71.9182 110.973 71.9187C110.725 72.5749 110.466 73.2258 110.176 73.8525L109.91 74.4248L110.542 74.5545C111.331 74.7162 112.103 74.9465 112.85 75.2424L113.048 75.3206L113.239 75.2372C115.964 74.0507 119.435 74.8237 122.713 77.2137L122.841 77.3071L122.998 77.3128C124.964 77.3845 127.449 77.3882 130.772 77.2575L130.776 77.2573C136.821 76.9818 142.84 76.3707 148.803 75.4271L148.884 75.4144L148.955 75.3772C149.394 75.1484 149.846 74.9441 150.31 74.765L150.405 74.728L150.478 74.6562C151.965 73.1782 153.868 72.1526 155.957 71.703L156.067 71.6793L156.155 71.6109C158.144 70.0671 160.825 68.9903 163.612 68.2434C166.394 67.4982 169.247 67.0905 171.554 66.8656L171.747 66.8468L171.874 66.7043C172.922 65.5275 174.21 64.5728 175.659 63.8989L175.874 63.7989L175.927 63.5686C176.178 62.4709 176.431 61.5197 176.621 60.8433C176.716 60.5052 176.796 60.236 176.851 60.0518C176.879 59.9598 176.901 59.889 176.916 59.8414L176.932 59.7879L176.936 59.7749L176.937 59.7746L176.937 59.7727C180.112 50.0955 185.594 45.7768 190.2 43.4938C191.331 42.9332 192.009 42.9088 192.399 43.039C192.764 43.161 193.009 43.4659 193.165 43.9337C193.322 44.4045 193.359 44.9619 193.35 45.4238C193.345 45.6504 193.33 45.845 193.316 45.9821C193.309 46.0505 193.302 46.1042 193.298 46.1399C193.295 46.1577 193.293 46.171 193.292 46.1794L193.291 46.1883ZM121.792 80.0282L120.481 79.5907L121.217 80.7546L121.641 80.4985L121.792 80.0282Z" fill="#656C73" stroke="#656C73"/>
</svg>
